<svg width="28" height="28" viewBox="0 0 28 28" fill="none" xmlns="http://www.w3.org/2000/svg">
<g id="fluent:call-24-filled">
<path id="Vector" d="M9.06761 2.84593L10.3229 2.4446C11.5001 2.06893 12.7578 2.67676 13.2618 3.86443L14.2651 6.23043C14.7014 7.2606 14.4588 8.47276 13.6654 9.22643L11.4546 11.3241C11.5911 12.5794 12.0134 13.8149 12.7204 15.0306C13.3918 16.2068 14.2924 17.2362 15.3688 18.0581L18.0241 17.1714C19.0298 16.8366 20.1264 17.2228 20.7424 18.1293L22.1809 20.2409C22.8984 21.2956 22.7689 22.7493 21.8788 23.6429L20.9256 24.6008C19.9759 25.5539 18.6191 25.9004 17.3649 25.5084C14.4016 24.5844 11.6798 21.8416 9.19478 17.2799C6.70628 12.7113 5.82778 8.83326 6.56044 5.6506C6.86844 4.31126 7.82161 3.24376 9.06761 2.84593Z" fill="#DC323F"/>
</g>
</svg>
